<?xml version="1.0" encoding="utf-8"?>
<!-- Generator: Adobe Illustrator 19.1.0, SVG Export Plug-In . SVG Version: 6.00 Build 0)  -->
<svg version="1.1" id="Layer_4" xmlns="http://www.w3.org/2000/svg" xmlns:xlink="http://www.w3.org/1999/xlink" x="0px" y="0px"
	 width="691.42px" height="448px" viewBox="0 0 691.42 448" enable-background="new 0 0 691.42 448" xml:space="preserve">
<g>
	<g>
		<g>
			<defs>
				<rect id="SVGID_1_" x="71.94" y="129.27" width="192" height="192"/>
			</defs>
			<clipPath id="SVGID_2_">
				<use xlink:href="#SVGID_1_"  overflow="visible"/>
			</clipPath>
		</g>
	</g>
	<g id="XMLID_50_">
		<g id="XMLID_72_">
			<path fill="none" d="M206.33,219.27l-33.54-58h-44.85l37.02,64l-37.02,64h44.85l33.54-58
				C208.48,227.56,208.48,222.98,206.33,219.27z"/>
			<polygon id="XMLID_80_" fill="#FFC107" points="187.09,263.54 176.46,245.15 150.94,289.27 172.79,289.27 187.38,264.04 			"/>
			<path fill="none" d="M206.33,219.27l-33.54-58h-44.85l37.02,64l-37.02,64h44.85l33.54-58
				C208.48,227.56,208.48,222.98,206.33,219.27z"/>
			<polygon fill="#0F9D58" points="164.96,225.27 176.46,245.15 150.94,289.27 127.94,289.27 			"/>
			<path fill="none" d="M206.33,219.27l-33.54-58h-44.85l37.02,64l-37.02,64h44.85l33.54-58
				C208.48,227.56,208.48,222.98,206.33,219.27z"/>
			<polygon opacity="0.2" fill="#BF360C" enable-background="new    " points="172.79,288.27 151.52,288.27 150.94,289.27 
				172.79,289.27 187.38,264.04 187.09,263.54 			"/>
			<path fill="none" d="M206.33,219.27l-33.54-58h-44.85l37.02,64l-37.02,64h44.85l33.54-58
				C208.48,227.56,208.48,222.98,206.33,219.27z"/>
			<polygon opacity="0.2" fill="#263238" enable-background="new    " points="128.52,288.27 127.94,289.27 150.94,289.27 
				151.52,288.27 			"/>
			<path fill="none" d="M206.33,219.27l-33.54-58h-44.85l37.02,64l-37.02,64h44.85l33.54-58
				C208.48,227.56,208.48,222.98,206.33,219.27z"/>
			<polygon opacity="0.2" fill="#FFFFFF" enable-background="new    " points="127.94,289.27 128.52,289.27 165.25,225.77 
				164.96,225.27 			"/>
			<path fill="none" d="M206.33,219.27l-33.54-58h-44.85l37.02,64l-37.02,64h44.85l33.54-58
				C208.48,227.56,208.48,222.98,206.33,219.27z"/>
			
				<radialGradient id="XMLID_2_" cx="187.2166" cy="186.356" r="44.2635" gradientTransform="matrix(1 0 0 -1 0 450)" gradientUnits="userSpaceOnUse">
				<stop  offset="0" style="stop-color:#BF360C;stop-opacity:0.2"/>
				<stop  offset="1" style="stop-color:#BF360C;stop-opacity:0.02"/>
			</radialGradient>
			<polygon id="XMLID_79_" fill="url(#XMLID_2_)" points="187.38,264.04 187.38,264.04 176.46,245.15 173.78,249.78 			"/>
			<path fill="none" d="M206.33,219.27l-33.54-58h-44.85l37.02,64l-37.02,64h44.85l33.54-58
				C208.48,227.56,208.48,222.98,206.33,219.27z"/>
			
				<radialGradient id="XMLID_3_" cx="187.0909" cy="186.0761" r="44.6228" gradientTransform="matrix(1 0 0 -1 0 450)" gradientUnits="userSpaceOnUse">
				<stop  offset="0" style="stop-color:#263238;stop-opacity:0.2"/>
				<stop  offset="1" style="stop-color:#263238;stop-opacity:0.02"/>
			</radialGradient>
			<polygon id="XMLID_78_" fill="url(#XMLID_3_)" points="173.78,249.78 176.46,245.15 164.96,225.27 159.47,234.77 			"/>
			<path fill="none" d="M206.33,219.27l-33.54-58h-44.85l37.02,64l-37.02,64h44.85l33.54-58
				C208.48,227.56,208.48,222.98,206.33,219.27z"/>
			<g id="XMLID_75_">
				<g id="XMLID_76_">
					<polygon id="XMLID_77_" fill="#4285F4" points="150.94,161.27 127.94,161.27 187.38,264.04 198.87,244.17 198.88,244.15 					
						"/>
				</g>
			</g>
			<path fill="none" d="M206.33,219.27l-33.54-58h-44.85l37.02,64l-37.02,64h44.85l33.54-58
				C208.48,227.56,208.48,222.98,206.33,219.27z"/>
			<path fill="#DB4437" d="M206.33,231.27c2.15-3.71,2.15-8.29,0-12l-33.54-58h-21.85l47.94,82.88L206.33,231.27z"/>
			<path fill="none" d="M206.33,219.27l-33.54-58h-44.85l37.02,64l-37.02,64h44.85l33.54-58
				C208.48,227.56,208.48,222.98,206.33,219.27z"/>
			<polygon opacity="0.2" fill="#1A237E" enable-background="new    " points="198.88,244.15 198.59,243.66 187.38,263.04 
				128.52,161.27 127.94,161.27 187.38,264.04 198.87,244.17 			"/>
			<path fill="none" d="M206.33,219.27l-33.54-58h-44.85l37.02,64l-37.02,64h44.85l33.54-58
				C208.48,227.56,208.48,222.98,206.33,219.27z"/>
			<path opacity="0.2" fill="#FFFFFF" enable-background="new    " d="M172.79,162.27l33.54,58c0.99,1.71,1.5,3.6,1.58,5.5
				c0.09-2.24-0.42-4.5-1.58-6.5l-33.54-58h-44.85l0.58,1H172.79z"/>
			<path fill="none" d="M206.33,219.27l-33.54-58h-44.85l37.02,64l-37.02,64h44.85l33.54-58
				C208.48,227.56,208.48,222.98,206.33,219.27z"/>
			<path id="XMLID_74_" opacity="0.2" fill="#3E2723" enable-background="new    " d="M198.88,244.15l7.45-12.88
				c1.16-2,1.67-4.26,1.58-6.5c-0.08,1.9-0.59,3.79-1.58,5.5l-7.74,13.39L198.88,244.15z"/>
			<path fill="none" d="M206.33,219.27l-33.54-58h-44.85l37.02,64l-37.02,64h44.85l33.54-58
				C208.48,227.56,208.48,222.98,206.33,219.27z"/>
			
				<radialGradient id="XMLID_4_" cx="126.94" cy="287.73" r="134.3503" gradientTransform="matrix(1 0 0 -1 0 450)" gradientUnits="userSpaceOnUse">
				<stop  offset="0" style="stop-color:#FFFFFF;stop-opacity:0.1"/>
				<stop  offset="1" style="stop-color:#FFFFFF;stop-opacity:0"/>
			</radialGradient>
			<path id="XMLID_73_" fill="url(#XMLID_4_)" d="M206.33,219.27l-33.54-58h-44.85l37.02,64l-37.02,64h44.85l33.54-58
				C208.48,227.56,208.48,222.98,206.33,219.27z"/>
		</g>
	</g>
</g>
<g id="XMLID_8_">
	<path id="XMLID_104_" fill="#FFFFFF" d="M370.4,172.45H401c31.16,0,50.72,20.68,50.72,49.7c0,29.15-19.57,49.7-50.72,49.7h-30.6
		L370.4,172.45L370.4,172.45z M401.53,256.79c21.69,0,35.13-12.04,35.13-34.64c0-22.47-13.44-34.64-35.13-34.64h-16.07v69.28H401.53
		z"/>
	<rect id="XMLID_103_" x="255.4" y="169.85" fill="none" width="307.23" height="108.44"/>
	<path id="XMLID_102_" fill="#FFFFFF" d="M357.83,217.64h-47.67v14.76h33.61c-1.11,7.53-3.72,13.4-7.63,17.32
		c-4.98,4.98-12.76,10.46-26.41,10.46c-21.05,0-37.51-16.97-37.51-38.02s16.46-38.02,37.51-38.02c11.35,0,19.65,4.47,25.77,10.21
		l10.08-10.08c-8.55-8.17-19.9-14.42-35.85-14.42c-28.83,0-53.07,23.47-53.07,52.31c0,28.83,24.24,52.31,53.07,52.31
		c15.56,0,27.3-5.1,36.49-14.67c9.44-9.44,12.38-22.71,12.38-33.43C358.6,223.05,358.34,220.19,357.83,217.64z"/>
	<path id="XMLID_86_" fill="#FFFFFF" d="M562.65,217.64h-47.67v14.76h33.61c-1.11,7.53-3.72,13.4-7.63,17.32
		c-4.98,4.98-12.76,10.46-26.41,10.46c-21.05,0-37.51-16.97-37.51-38.02s16.46-38.02,37.51-38.02c11.35,0,19.65,4.47,25.77,10.21
		l10.08-10.08c-8.55-8.17-19.9-14.42-35.85-14.42c-28.83,0-53.07,23.47-53.07,52.31c0,28.83,24.24,52.31,53.07,52.31
		c15.56,0,27.3-5.1,36.49-14.67c9.44-9.44,12.38-22.71,12.38-33.43C563.42,223.05,563.16,220.19,562.65,217.64z"/>
</g>
</svg>
