<?xml version="1.0" encoding="UTF-8" standalone="no"?>
<!DOCTYPE svg PUBLIC "-//W3C//DTD SVG 1.1//EN" "http://www.w3.org/Graphics/SVG/1.1/DTD/svg11.dtd">
<svg width="100%" height="100%" viewBox="0 0 3000 1000" version="1.1" xmlns="http://www.w3.org/2000/svg" xmlns:xlink="http://www.w3.org/1999/xlink" xml:space="preserve" xmlns:serif="http://www.serif.com/" style="fill-rule:evenodd;clip-rule:evenodd;stroke-linejoin:round;stroke-miterlimit:2;">
    <g id="Layer-1" serif:id="Layer 1" transform="matrix(1,0,0,1,774.5,314.47)">
        <g transform="matrix(1,0,0,1,-347.507,13.6556)">
            <path d="M0,158.995L101.563,100.356C125.465,86.558 133.654,55.993 119.854,32.093C106.054,8.192 75.494,0 51.59,13.802L-123.906,115.125L0,158.995Z" style="fill:rgb(234,67,53);fill-rule:nonzero;"/>
        </g>
        <g transform="matrix(1,0,0,1,-270.977,114.972)">
            <path d="M0,208.388C17.272,208.388 34.068,199.424 43.325,183.393C57.125,159.492 48.936,128.927 25.034,115.129L-150.462,13.808C-174.366,0 -204.926,8.199 -218.726,32.1C-232.526,56.003 -224.337,86.565 -200.435,100.364L-24.939,201.684C-17.07,206.229 -8.476,208.388 0,208.388" style="fill:rgb(66,133,244);fill-rule:nonzero;"/>
        </g>
        <g transform="matrix(1,0,0,1,-96.4042,170.555)">
            <path d="M0,152.805C8.478,152.805 17.068,150.646 24.939,146.101L200.433,44.781L78.103,0L-25.034,59.546C-48.936,73.344 -57.125,103.909 -43.325,127.81C-34.069,143.841 -17.271,152.805 0,152.805" style="fill:rgb(251,188,4);fill-rule:nonzero;"/>
        </g>
        <g transform="matrix(1,0,0,1,78.9957,13.6582)">
            <path d="M0,208.382C17.272,208.382 34.068,199.421 43.325,183.387C57.125,159.486 48.936,128.924 25.033,115.122L-150.461,13.799C-174.363,0 -204.923,8.187 -218.725,32.09C-232.525,55.99 -224.335,86.552 -200.434,100.354L-24.939,201.678C-17.07,206.219 -8.477,208.382 0,208.382" style="fill:rgb(15,157,88);fill-rule:nonzero;"/>
        </g>
        <g transform="matrix(25.6339,0,0,25.6339,-42249.5,-9984.38)">
            <g transform="matrix(12,0,0,12,1658.18,400.38)">
                <path d="M0.416,0.016C0.349,0.016 0.287,0 0.23,-0.033C0.173,-0.066 0.128,-0.111 0.095,-0.168C0.062,-0.225 0.045,-0.289 0.045,-0.358C0.045,-0.427 0.062,-0.491 0.095,-0.548C0.128,-0.605 0.173,-0.65 0.23,-0.683C0.287,-0.716 0.349,-0.732 0.416,-0.732C0.469,-0.732 0.518,-0.723 0.565,-0.704C0.611,-0.685 0.649,-0.659 0.679,-0.625L0.618,-0.564C0.595,-0.592 0.566,-0.614 0.531,-0.629C0.496,-0.644 0.458,-0.651 0.417,-0.651C0.366,-0.651 0.319,-0.639 0.276,-0.615C0.232,-0.59 0.197,-0.556 0.171,-0.512C0.144,-0.467 0.131,-0.416 0.131,-0.358C0.131,-0.3 0.144,-0.249 0.171,-0.205C0.197,-0.16 0.232,-0.126 0.276,-0.102C0.32,-0.077 0.367,-0.065 0.417,-0.065C0.465,-0.065 0.505,-0.073 0.538,-0.088C0.57,-0.102 0.598,-0.122 0.621,-0.147C0.638,-0.166 0.652,-0.188 0.663,-0.215C0.674,-0.241 0.68,-0.27 0.683,-0.302L0.418,-0.302L0.418,-0.381L0.762,-0.381C0.765,-0.362 0.767,-0.345 0.767,-0.329C0.767,-0.285 0.76,-0.242 0.746,-0.201C0.732,-0.159 0.71,-0.122 0.679,-0.091C0.613,-0.02 0.525,0.016 0.416,0.016Z" style="fill:rgb(103,108,114);fill-rule:nonzero;"/>
            </g>
            <g transform="matrix(12,0,0,12,1667.94,400.38)">
                <path d="M0.08,-0.716L0.296,-0.716C0.369,-0.716 0.433,-0.701 0.488,-0.671C0.543,-0.64 0.585,-0.598 0.614,-0.544C0.643,-0.49 0.658,-0.428 0.658,-0.358C0.658,-0.288 0.643,-0.226 0.614,-0.172C0.585,-0.118 0.543,-0.076 0.488,-0.046C0.433,-0.015 0.369,0 0.296,0L0.08,0L0.08,-0.716ZM0.296,-0.081C0.381,-0.081 0.448,-0.105 0.498,-0.154C0.547,-0.203 0.572,-0.271 0.572,-0.358C0.572,-0.445 0.547,-0.513 0.498,-0.562C0.448,-0.611 0.381,-0.635 0.296,-0.635L0.164,-0.635L0.164,-0.081L0.296,-0.081Z" style="fill:rgb(103,108,114);fill-rule:nonzero;"/>
            </g>
            <g transform="matrix(12,0,0,12,1676.37,400.38)">
                <path d="M0.416,0.016C0.349,0.016 0.287,0 0.23,-0.033C0.173,-0.066 0.128,-0.111 0.095,-0.168C0.062,-0.225 0.045,-0.289 0.045,-0.358C0.045,-0.427 0.062,-0.491 0.095,-0.548C0.128,-0.605 0.173,-0.65 0.23,-0.683C0.287,-0.716 0.349,-0.732 0.416,-0.732C0.469,-0.732 0.518,-0.723 0.565,-0.704C0.611,-0.685 0.649,-0.659 0.679,-0.625L0.618,-0.564C0.595,-0.592 0.566,-0.614 0.531,-0.629C0.496,-0.644 0.458,-0.651 0.417,-0.651C0.366,-0.651 0.319,-0.639 0.276,-0.615C0.232,-0.59 0.197,-0.556 0.171,-0.512C0.144,-0.467 0.131,-0.416 0.131,-0.358C0.131,-0.3 0.144,-0.249 0.171,-0.205C0.197,-0.16 0.232,-0.126 0.276,-0.102C0.32,-0.077 0.367,-0.065 0.417,-0.065C0.465,-0.065 0.505,-0.073 0.538,-0.088C0.57,-0.102 0.598,-0.122 0.621,-0.147C0.638,-0.166 0.652,-0.188 0.663,-0.215C0.674,-0.241 0.68,-0.27 0.683,-0.302L0.418,-0.302L0.418,-0.381L0.762,-0.381C0.765,-0.362 0.767,-0.345 0.767,-0.329C0.767,-0.285 0.76,-0.242 0.746,-0.201C0.732,-0.159 0.71,-0.122 0.679,-0.091C0.613,-0.02 0.525,0.016 0.416,0.016Z" style="fill:rgb(103,108,114);fill-rule:nonzero;"/>
            </g>
            <g transform="matrix(12,0,0,12,1688.91,400.38)">
                <path d="M0.08,-0.716L0.337,-0.716C0.373,-0.716 0.407,-0.708 0.439,-0.691C0.47,-0.674 0.495,-0.651 0.514,-0.622C0.533,-0.593 0.542,-0.56 0.542,-0.523C0.542,-0.488 0.533,-0.458 0.516,-0.432C0.498,-0.406 0.474,-0.386 0.444,-0.372L0.444,-0.368C0.48,-0.356 0.509,-0.335 0.532,-0.306C0.555,-0.277 0.566,-0.242 0.566,-0.203C0.566,-0.164 0.556,-0.129 0.537,-0.099C0.517,-0.068 0.491,-0.043 0.458,-0.026C0.425,-0.009 0.389,0 0.351,0L0.08,0L0.08,-0.716ZM0.337,-0.406C0.361,-0.406 0.382,-0.412 0.401,-0.423C0.419,-0.434 0.433,-0.449 0.443,-0.467C0.453,-0.484 0.458,-0.502 0.458,-0.521C0.458,-0.539 0.453,-0.557 0.444,-0.575C0.434,-0.592 0.42,-0.607 0.403,-0.618C0.385,-0.629 0.364,-0.635 0.341,-0.635L0.164,-0.635L0.164,-0.406L0.337,-0.406ZM0.356,-0.081C0.38,-0.081 0.401,-0.087 0.421,-0.099C0.44,-0.111 0.454,-0.127 0.465,-0.146C0.475,-0.165 0.48,-0.184 0.48,-0.204C0.48,-0.224 0.475,-0.244 0.464,-0.263C0.453,-0.282 0.438,-0.297 0.419,-0.309C0.4,-0.32 0.377,-0.326 0.352,-0.326L0.164,-0.326L0.164,-0.081L0.356,-0.081Z" style="fill:rgb(103,108,114);fill-rule:nonzero;"/>
            </g>
            <g transform="matrix(12,0,0,12,1696.19,400.38)">
                <path d="M0.29,0.016C0.241,0.016 0.198,0.004 0.159,-0.019C0.12,-0.042 0.09,-0.075 0.069,-0.116C0.047,-0.157 0.036,-0.203 0.036,-0.254C0.036,-0.303 0.046,-0.349 0.067,-0.39C0.087,-0.431 0.116,-0.464 0.153,-0.489C0.19,-0.514 0.234,-0.526 0.283,-0.526C0.333,-0.526 0.376,-0.515 0.413,-0.493C0.45,-0.47 0.478,-0.439 0.498,-0.4C0.517,-0.361 0.527,-0.316 0.527,-0.265C0.527,-0.255 0.526,-0.246 0.524,-0.239L0.121,-0.239C0.123,-0.2 0.132,-0.168 0.149,-0.141C0.166,-0.114 0.187,-0.094 0.213,-0.081C0.238,-0.068 0.265,-0.061 0.293,-0.061C0.358,-0.061 0.409,-0.092 0.444,-0.153L0.516,-0.118C0.494,-0.077 0.464,-0.044 0.427,-0.02C0.389,0.004 0.343,0.016 0.29,0.016ZM0.437,-0.309C0.436,-0.33 0.43,-0.352 0.419,-0.373C0.408,-0.394 0.392,-0.412 0.369,-0.427C0.345,-0.442 0.317,-0.449 0.282,-0.449C0.242,-0.449 0.208,-0.436 0.181,-0.411C0.153,-0.385 0.135,-0.351 0.126,-0.309L0.437,-0.309Z" style="fill:rgb(103,108,114);fill-rule:nonzero;"/>
            </g>
            <g transform="matrix(12,0,0,12,1702.94,400.38)">
                <path d="M0.113,-0.604C0.096,-0.604 0.082,-0.61 0.07,-0.622C0.058,-0.634 0.052,-0.648 0.052,-0.665C0.052,-0.682 0.058,-0.696 0.07,-0.708C0.082,-0.719 0.096,-0.725 0.113,-0.725C0.13,-0.725 0.144,-0.719 0.156,-0.708C0.168,-0.696 0.174,-0.682 0.174,-0.665C0.174,-0.648 0.168,-0.634 0.157,-0.622C0.145,-0.61 0.13,-0.604 0.113,-0.604ZM0.071,-0.51L0.155,-0.51L0.155,0L0.071,0L0.071,-0.51Z" style="fill:rgb(103,108,114);fill-rule:nonzero;"/>
            </g>
            <g transform="matrix(12,0,0,12,1705.65,400.38)">
                <path d="M0.113,-0.604C0.096,-0.604 0.082,-0.61 0.07,-0.622C0.058,-0.634 0.052,-0.648 0.052,-0.665C0.052,-0.682 0.058,-0.696 0.07,-0.708C0.082,-0.719 0.096,-0.725 0.113,-0.725C0.13,-0.725 0.144,-0.719 0.156,-0.708C0.168,-0.696 0.174,-0.682 0.174,-0.665C0.174,-0.648 0.168,-0.634 0.157,-0.622C0.145,-0.61 0.13,-0.604 0.113,-0.604ZM0.015,0.226C-0.001,0.226 -0.016,0.224 -0.03,0.219L-0.03,0.138C-0.025,0.141 -0.018,0.144 -0.01,0.146C-0.002,0.148 0.005,0.149 0.012,0.149C0.033,0.149 0.048,0.142 0.057,0.13C0.066,0.117 0.071,0.097 0.071,0.072L0.071,-0.51L0.155,-0.51L0.155,0.072C0.155,0.123 0.143,0.162 0.118,0.188C0.093,0.213 0.059,0.226 0.015,0.226Z" style="fill:rgb(103,108,114);fill-rule:nonzero;"/>
            </g>
            <g transform="matrix(12,0,0,12,1708.37,400.38)">
                <path d="M0.113,-0.604C0.096,-0.604 0.082,-0.61 0.07,-0.622C0.058,-0.634 0.052,-0.648 0.052,-0.665C0.052,-0.682 0.058,-0.696 0.07,-0.708C0.082,-0.719 0.096,-0.725 0.113,-0.725C0.13,-0.725 0.144,-0.719 0.156,-0.708C0.168,-0.696 0.174,-0.682 0.174,-0.665C0.174,-0.648 0.168,-0.634 0.157,-0.622C0.145,-0.61 0.13,-0.604 0.113,-0.604ZM0.071,-0.51L0.155,-0.51L0.155,0L0.071,0L0.071,-0.51Z" style="fill:rgb(103,108,114);fill-rule:nonzero;"/>
            </g>
            <g transform="matrix(12,0,0,12,1711.08,400.38)">
                <path d="M0.063,-0.51L0.144,-0.51L0.144,-0.435L0.148,-0.435C0.162,-0.46 0.184,-0.482 0.215,-0.5C0.246,-0.517 0.278,-0.526 0.313,-0.526C0.374,-0.526 0.421,-0.508 0.454,-0.473C0.486,-0.437 0.502,-0.388 0.502,-0.327L0.502,0L0.417,0L0.417,-0.314C0.417,-0.361 0.406,-0.396 0.383,-0.417C0.36,-0.438 0.329,-0.449 0.29,-0.449C0.263,-0.449 0.238,-0.441 0.217,-0.426C0.195,-0.411 0.178,-0.391 0.166,-0.366C0.154,-0.341 0.148,-0.314 0.148,-0.287L0.148,0L0.063,0L0.063,-0.51Z" style="fill:rgb(103,108,114);fill-rule:nonzero;"/>
            </g>
            <g transform="matrix(12,0,0,12,1717.75,400.38)">
                <path d="M0.287,0.232C0.227,0.232 0.178,0.218 0.139,0.19C0.099,0.162 0.073,0.128 0.06,0.089L0.137,0.056C0.148,0.085 0.167,0.109 0.194,0.128C0.22,0.146 0.251,0.155 0.287,0.155C0.34,0.155 0.381,0.14 0.41,0.109C0.439,0.078 0.453,0.035 0.453,-0.021L0.453,-0.078L0.449,-0.078C0.432,-0.052 0.409,-0.031 0.379,-0.015C0.348,0.002 0.314,0.01 0.275,0.01C0.231,0.01 0.191,-0.001 0.155,-0.024C0.118,-0.047 0.089,-0.078 0.068,-0.119C0.047,-0.16 0.036,-0.206 0.036,-0.258C0.036,-0.309 0.047,-0.356 0.068,-0.397C0.089,-0.438 0.118,-0.469 0.155,-0.492C0.191,-0.515 0.231,-0.526 0.275,-0.526C0.314,-0.526 0.348,-0.518 0.379,-0.502C0.409,-0.485 0.432,-0.464 0.449,-0.437L0.453,-0.437L0.453,-0.51L0.534,-0.51L0.534,-0.02C0.534,0.062 0.511,0.125 0.466,0.168C0.421,0.211 0.361,0.232 0.287,0.232ZM0.287,-0.067C0.318,-0.067 0.345,-0.075 0.371,-0.09C0.396,-0.105 0.416,-0.127 0.431,-0.156C0.446,-0.185 0.453,-0.219 0.453,-0.258C0.453,-0.298 0.446,-0.332 0.431,-0.361C0.416,-0.39 0.396,-0.412 0.371,-0.427C0.345,-0.442 0.318,-0.449 0.287,-0.449C0.256,-0.449 0.228,-0.441 0.203,-0.426C0.178,-0.411 0.158,-0.389 0.143,-0.36C0.128,-0.331 0.12,-0.297 0.12,-0.258C0.12,-0.219 0.128,-0.185 0.143,-0.156C0.158,-0.127 0.178,-0.105 0.203,-0.09C0.228,-0.075 0.256,-0.067 0.287,-0.067Z" style="fill:rgb(103,108,114);fill-rule:nonzero;"/>
            </g>
        </g>
    </g>
</svg>
